<svg xmlns="http://www.w3.org/2000/svg" width="71.757" height="63.795" viewBox="0 0 71.757 63.795">
  <path id="Icon_awesome-cat" data-name="Icon awesome-cat" d="M40.726,23.515c-2.828,0-14.971.263-22.787,11.423V23.515c0-7.036-6.035-12.759-13.454-12.759A4.374,4.374,0,0,0,0,15.009a4.374,4.374,0,0,0,4.485,4.253A4.379,4.379,0,0,1,8.97,23.515V57.539a8.755,8.755,0,0,0,8.97,8.506H42.606a2.186,2.186,0,0,0,2.242-2.126V61.792a4.374,4.374,0,0,0-4.485-4.253H35.878L53.818,44.78V63.918a2.186,2.186,0,0,0,2.242,2.126h4.485a2.186,2.186,0,0,0,2.242-2.126v-27.4a18.665,18.665,0,0,1-4.485.6c-8.663,0-15.91-5.854-17.576-13.61ZM62.787,10.756h-8.97L44.848,2.25V20.112c0,7.047,6.024,12.759,13.454,12.759s13.454-5.712,13.454-12.759V2.25ZM52.7,21.388a2.129,2.129,0,1,1,2.242-2.126A2.186,2.186,0,0,1,52.7,21.388Zm11.212,0a2.129,2.129,0,1,1,2.242-2.126A2.186,2.186,0,0,1,63.908,21.388Z" transform="translate(0 -2.25)"/>
</svg>
