<svg xmlns="http://www.w3.org/2000/svg" width="468" height="123" viewBox="0 0 468 123">
  <path id="Icon_awesome-cat" data-name="Icon awesome-cat" d="M63.484,35.4c-4.409,0-23.337.41-35.52,17.807V35.4c0-10.968-9.407-19.889-20.973-19.889A6.818,6.818,0,0,0,0,22.139a6.818,6.818,0,0,0,6.991,6.63,6.826,6.826,0,0,1,6.991,6.63V88.434c0,7.313,6.27,13.259,13.982,13.259h38.45a3.408,3.408,0,0,0,3.5-3.315V95.064a6.818,6.818,0,0,0-6.991-6.63H55.927L83.891,68.545V98.378a3.408,3.408,0,0,0,3.5,3.315h6.991a3.408,3.408,0,0,0,3.5-3.315V55.672a29.1,29.1,0,0,1-6.991.941c-13.5,0-24.8-9.126-27.4-21.215ZM97.873,15.509H83.891L69.909,2.25V30.094c0,10.984,9.39,19.889,20.973,19.889s20.973-8.9,20.973-19.889V2.25ZM82.143,32.083a3.319,3.319,0,1,1,3.5-3.315A3.408,3.408,0,0,1,82.143,32.083Zm17.477,0a3.319,3.319,0,1,1,3.5-3.315A3.408,3.408,0,0,1,99.621,32.083Z" transform="translate(0 -2.25)"/>
  <text id="big_FUZZY" data-name="big FUZZY" transform="translate(112 102)" font-size="80" font-family="Phosphate-Solid, Phosphate">
    <tspan x="0" y="0">big FUZZY</tspan>
  </text>
</svg>
